<svg xmlns="http://www.w3.org/2000/svg" version="1.1" xmlns:xlink="http://www.w3.org/1999/xlink" xmlns:svgjs="http://svgjs.com/svgjs" width="1440" height="560" preserveAspectRatio="none" viewBox="0 0 1440 560"><g mask="url(&quot;#SvgjsMask1019&quot;)" fill="none"><path d="M1001.9031575429024 177.69328816766003L1116.6468103626082 171.67982813655493 995.8896975117973 62.949635347954256z" fill="rgba(29, 122, 123, 0.42)" class="triangle-float1"></path><path d="M1410.5585307641945 223.59781905772365L1299.1424973683797 108.22313903405492 1183.767817344711 219.63917242986975 1295.1838507405257 335.01385245353845z" fill="rgba(29, 122, 123, 0.42)" class="triangle-float2"></path><path d="M1200.897,540.242C1255.908,542.961,1314.182,524.666,1341.396,476.781C1368.371,429.317,1351.72,371.604,1323.189,325.059C1296.159,280.962,1252.615,246.898,1200.897,247.575C1150.178,248.239,1108.361,283.684,1084.025,328.188C1060.746,370.759,1059.134,421.495,1082.554,463.989C1106.832,508.039,1150.661,537.759,1200.897,540.242" fill="rgba(29, 122, 123, 0.42)" class="triangle-float3"></path><path d="M740.0887014782805 11.91807286049574L791.5752882315749 80.24308119436499 859.9002965654441 28.756494441070657 808.4137098121498-39.56851389279859z" fill="rgba(29, 122, 123, 0.42)" class="triangle-float3"></path><path d="M19.52899370898858 581.5060301291189L80.79628241269229 555.4996090169535 11.153006392592282 476.6018865174807z" fill="rgba(29, 122, 123, 0.42)" class="triangle-float1"></path><path d="M739.427,692.943C794.935,692.685,854.186,681.303,883.168,633.961C913.175,584.944,904.333,522.084,873.846,473.365C845.202,427.591,793.411,403.027,739.427,404.26C687.608,405.444,642.94,435.462,615.241,479.273C585.159,526.853,565.064,586.64,593.351,635.309C621.543,683.814,683.325,693.204,739.427,692.943" fill="rgba(29, 122, 123, 0.42)" class="triangle-float2"></path><path d="M1250.899,464.882C1282.327,464.667,1306.616,442.135,1324.013,415.96C1344.205,385.579,1366.033,349.357,1349.182,317.003C1331.58,283.207,1288.924,273.116,1250.899,275.578C1217.168,277.762,1188.255,298.574,1172.437,328.447C1157.624,356.421,1160.247,389.534,1176.027,416.974C1191.858,444.502,1219.144,465.1,1250.899,464.882" fill="rgba(29, 122, 123, 0.42)" class="triangle-float1"></path><path d="M908.34,615.917C954.458,618.522,1001.242,598.71,1024.263,558.665C1047.222,518.728,1039.77,469.008,1015.196,430.044C992.276,393.702,951.298,375.667,908.34,374.86C863.71,374.021,815.934,386.851,794.295,425.893C773.114,464.108,790.593,509.274,813.077,546.737C834.722,582.802,866.345,613.545,908.34,615.917" fill="rgba(29, 122, 123, 0.42)" class="triangle-float2"></path><path d="M1347.8534099107517 371.41576052211497L1318.178748637091 267.9279181802649 1214.6909062952411 297.60257945392544 1244.3655675689017 401.0904217957755z" fill="rgba(29, 122, 123, 0.42)" class="triangle-float1"></path><path d="M785.317703421614 390.5798936425781L898.2961054735938 277.6014915905983 785.317703421614 164.62308953861853 672.3393013696343 277.60149159059836z" fill="rgba(29, 122, 123, 0.42)" class="triangle-float3"></path></g><defs><mask id="SvgjsMask1019"><rect width="1440" height="560" fill="#ffffff"></rect></mask><style>
            @keyframes float1 {
                0%{transform: translate(0, 0)}
                50%{transform: translate(-10px, 0)}
                100%{transform: translate(0, 0)}
            }

            .triangle-float1 {
                animation: float1 5s infinite;
            }

            @keyframes float2 {
                0%{transform: translate(0, 0)}
                50%{transform: translate(-5px, -5px)}
                100%{transform: translate(0, 0)}
            }

            .triangle-float2 {
                animation: float2 4s infinite;
            }

            @keyframes float3 {
                0%{transform: translate(0, 0)}
                50%{transform: translate(0, -10px)}
                100%{transform: translate(0, 0)}
            }

            .triangle-float3 {
                animation: float3 6s infinite;
            }
        </style></defs></svg>